<?xml version="1.0" encoding="utf-8"?>
<!-- Generator: Adobe Illustrator 27.0.0, SVG Export Plug-In . SVG Version: 6.00 Build 0)  -->
<svg version="1.1" id="Layer_1" xmlns="http://www.w3.org/2000/svg" xmlns:xlink="http://www.w3.org/1999/xlink" x="0px" y="0px"
	 viewBox="0 0 800 800" style="enable-background:new 0 0 800 800;" xml:space="preserve">
<style type="text/css">
	.st0{fill-rule:evenodd;clip-rule:evenodd;fill:#585858;}
</style>
<path class="st0" d="M400,112.5c-158.8,0-287.5,128.7-287.5,287.5c0,158.8,128.7,287.5,287.5,287.5c158.8,0,287.5-128.7,287.5-287.5
	c0-9.5-0.5-18.8-1.3-28c-2-20.6,13.1-38.9,33.7-40.9s38.9,13.1,40.9,33.7c1.1,11.6,1.7,23.3,1.7,35.2
	c0,200.2-162.3,362.5-362.5,362.5C199.8,762.5,37.5,600.2,37.5,400C37.5,199.8,199.8,37.5,400,37.5c68.3,0,132.3,18.9,186.9,51.8
	c17.7,10.7,23.5,33.7,12.8,51.5c-10.7,17.7-33.7,23.5-51.5,12.8C504.9,127.5,454.3,112.5,400,112.5z"/>
<path class="st0" d="M400,500c-55.2,0-100-44.8-100-100s44.8-100,100-100s100,44.8,100,100S455.2,500,400,500z M400,575
	c96.6,0,175-78.4,175-175s-78.4-175-175-175s-175,78.4-175,175S303.4,575,400,575z"/>
<path class="st0" d="M675,225c27.6,0,50-22.4,50-50s-22.4-50-50-50s-50,22.4-50,50S647.4,225,675,225z M675,300c69,0,125-56,125-125
	S744,50,675,50s-125,56-125,125S606,300,675,300z"/>
</svg>
